<svg width="60" height="60" viewBox="0 0 60 60" fill="none" xmlns="http://www.w3.org/2000/svg">
<path d="M29.9999 59.9999C13.4314 59.9999 0 46.5684 0 29.9999C0 13.4314 13.4314 3.8147e-06 29.9999 3.8147e-06C46.5684 3.8147e-06 59.9999 13.4314 59.9999 29.9999C59.9823 46.561 46.5612 59.9822 29.9999 59.9999ZM42.6341 29.0441C42.4264 28.6275 42.0888 28.2897 41.6721 28.082V28.0714L24.5293 19.4999C23.4705 18.9709 22.1836 19.4002 21.6545 20.4589C21.5041 20.7599 21.4266 21.0921 21.4285 21.4285V38.5713C21.428 39.7548 22.3869 40.7146 23.5704 40.7152C23.9032 40.7153 24.2316 40.638 24.5293 40.4892L41.6721 31.9177C42.7313 31.3899 43.1621 30.1033 42.6341 29.0441Z" fill="white"/>
</svg>
